<svg xmlns="http://www.w3.org/2000/svg" viewBox="0 0 200 350"><defs><style>.cls-1{isolation:isolate;}.cls-2{fill:#eece33;}.cls-3{fill:#f2f2f2;opacity:0.5;}.cls-4{fill:#eebf34;}.cls-5{fill:#edb134;}.cls-6{fill:#eda235;}.cls-7,.cls-8{fill:#c1272d;}.cls-7{opacity:0.16;}.cls-9{fill:#999;mix-blend-mode:multiply;}.cls-10{fill:#662d91;}.cls-11{fill:#4d1f75;}</style></defs><g class="cls-1"><g id="Layer_2" data-name="Layer 2"><g id="OBJECTS"><rect class="cls-2" width="200" height="350"/><path class="cls-3" d="M199.65,274.43A22.54,22.54,0,0,0,191.4,276a39.85,39.85,0,0,0-69.84-18.22,15,15,0,0,0-12.26-2.53,9.14,9.14,0,0,0-3.88,1.76c-5.67,4.41-7,10.57-5.3,15.67a40,40,0,0,0-53.65,20,39.71,39.71,0,0,0-23.55-10.18c.08-7.62-6.44-14.68-16.16-13.6a10.38,10.38,0,0,0-4.63,1.69A18.78,18.78,0,0,0,0,272.33V350H200V274.44Zm-87,7.6a.52.52,0,0,1-.1-.11h.1Z"/><path class="cls-3" d="M193.24,226.93c-9.72-1.09-16.24,6-16.16,13.59-9.06.74-22.09,7-23.55,22.22a40,40,0,0,0-53.65-20c1.72-5.11.37-11.26-5.3-15.67a9.28,9.28,0,0,0-3.88-1.77,15,15,0,0,0-12.26,2.54A39.85,39.85,0,0,0,8.6,246a22.34,22.34,0,0,0-8.25-1.57l-.35,0V350H200V230.34a17.75,17.75,0,0,0-2.13-1.72A10.15,10.15,0,0,0,193.24,226.93ZM87.31,252.08V252h.1Z"/><rect class="cls-4" y="124.7" width="200" height="73.44"/><rect class="cls-5" y="97.69" width="200" height="46.12"/><rect class="cls-6" width="200" height="107.33"/><ellipse class="cls-7" cx="101.69" cy="124.7" rx="60.69" ry="59.72"/><ellipse class="cls-8" cx="101.69" cy="124.7" rx="50.07" ry="49.26"/><path class="cls-9" d="M77,124.7c0-22.88,15.87-42.12,37.36-47.65a50.65,50.65,0,0,0-12.71-1.61C74,75.44,51.62,97.5,51.62,124.7S74,174,101.69,174a51.11,51.11,0,0,0,12.71-1.6C92.91,166.82,77,147.59,77,124.7Z"/><ellipse class="cls-10" cx="81.11" cy="109.3" rx="12.45" ry="12.25"/><path class="cls-11" d="M70,112.92a12.48,12.48,0,0,1,23.29-6,12.46,12.46,0,0,0-24.65,2.38,12.11,12.11,0,0,0,1.6,6A12.47,12.47,0,0,1,70,112.92Z"/><path class="cls-10" d="M124,152.54a12.91,12.91,0,1,1,13.8-12.19A13,13,0,0,1,124,152.54Z"/><path class="cls-11" d="M121.43,128a12.86,12.86,0,0,1,5.08,24.46,12.89,12.89,0,0,0-1.13-25.66,13.25,13.25,0,0,0-6.5,1.32A13.46,13.46,0,0,1,121.43,128Z"/><ellipse class="cls-10" cx="73.18" cy="145.38" rx="7.81" ry="7.68"/><path class="cls-11" d="M66.22,147.65a7.83,7.83,0,0,1,14.62-3.76,7.82,7.82,0,0,0-15.47,1.49,7.59,7.59,0,0,0,1,3.76A8.09,8.09,0,0,1,66.22,147.65Z"/><path class="cls-10" d="M137.12,104.19a7.81,7.81,0,1,1-7.81-7.68A7.75,7.75,0,0,1,137.12,104.19Z"/><path class="cls-11" d="M122.35,106.46a7.75,7.75,0,0,1,7.81-7.68A7.83,7.83,0,0,1,137,102.7a7.82,7.82,0,0,0-15.47,1.49,7.49,7.49,0,0,0,1,3.76A7.31,7.31,0,0,1,122.35,106.46Z"/><path class="cls-3" d="M135.5,53.76a3.69,3.69,0,0,1-3.72-3.66h0a3.69,3.69,0,0,1,3.72-3.66h6.64a3.69,3.69,0,0,0,3.72-3.66h0a3.69,3.69,0,0,0-3.72-3.67H122.41a3.68,3.68,0,0,1-3.72-3.66h0a3.69,3.69,0,0,1,3.72-3.66h19.73a3.69,3.69,0,0,0,3.72-3.66h0a3.69,3.69,0,0,0-3.72-3.66h-4a3.7,3.7,0,0,1-3.73-3.66h0a3.7,3.7,0,0,1,3.73-3.66h37.21a3.69,3.69,0,0,1,3.72,3.66h0a3.69,3.69,0,0,1-3.72,3.66h-10.4a3.69,3.69,0,0,0-3.72,3.66h0a3.69,3.69,0,0,0,3.72,3.66h22.21a3.69,3.69,0,0,1,3.72,3.66h0a3.68,3.68,0,0,1-3.72,3.66H164.93a3.7,3.7,0,0,0-3.72,3.67h0a3.69,3.69,0,0,0,3.72,3.66h16.61a3.69,3.69,0,0,1,3.72,3.66h0a3.69,3.69,0,0,1-3.72,3.66Z"/><path class="cls-3" d="M22.74,191.53a2,2,0,0,1-2.06-2h0a2,2,0,0,1,2.06-2h3.68a2,2,0,0,0,2.06-2h0a2,2,0,0,0-2.06-2H15.49a2.05,2.05,0,0,1-2.07-2h0a2.05,2.05,0,0,1,2.07-2H26.42a2,2,0,0,0,2.06-2h0a2,2,0,0,0-2.06-2H24.19a2,2,0,0,1-2.06-2h0a2,2,0,0,1,2.06-2H44.8a2,2,0,0,1,2.06,2h0a2,2,0,0,1-2.06,2H39a2,2,0,0,0-2.06,2h0a2.05,2.05,0,0,0,2.06,2H51.35a2,2,0,0,1,2.06,2h0a2,2,0,0,1-2.06,2H39a2.05,2.05,0,0,0-2.06,2h0a2.05,2.05,0,0,0,2.06,2h9.21a2,2,0,0,1,2.06,2h0a2.05,2.05,0,0,1-2.06,2Z"/><path class="cls-3" d="M144.1,229.56a2,2,0,0,1-2.06-2h0a2,2,0,0,1,2.06-2h3.68a2,2,0,0,0,2.06-2h0a2.05,2.05,0,0,0-2.06-2H136.84a2,2,0,0,1-2.06-2h0a2,2,0,0,1,2.06-2h10.94a2.05,2.05,0,0,0,2.06-2h0a2.05,2.05,0,0,0-2.06-2h-2.23a2,2,0,0,1-2.07-2h0a2,2,0,0,1,2.07-2h20.61a2,2,0,0,1,2.06,2h0a2,2,0,0,1-2.06,2H160.4a2,2,0,0,0-2.06,2h0a2,2,0,0,0,2.06,2h12.3a2.05,2.05,0,0,1,2.07,2h0a2.05,2.05,0,0,1-2.07,2H160.4a2,2,0,0,0-2.06,2h0a2,2,0,0,0,2.06,2h9.2a2,2,0,0,1,2.06,2h0a2,2,0,0,1-2.06,2Z"/></g></g></g></svg>