<svg xmlns="http://www.w3.org/2000/svg" viewBox="0 0 200 350"><defs><style>.cls-1{isolation:isolate;}.cls-2{fill:#533d93;}.cls-3{fill:#4c398b;}.cls-4{fill:#453482;}.cls-5{fill:#3e307a;}.cls-6{fill:#f2f2f2;opacity:0.5;}.cls-7{fill:#9e1916;}.cls-8{fill:#7c0f0f;}.cls-9{fill:#dbd7dd;}.cls-10{fill:#bb2d23;}.cls-11{fill:#b3b3b3;}.cls-11,.cls-14{mix-blend-mode:multiply;}.cls-12{fill:#5ba6cf;}.cls-13{fill:#8cc63f;}.cls-14{fill:#999;}.cls-15{fill:#fff;}</style></defs><g class="cls-1"><g id="Layer_2" data-name="Layer 2"><g id="OBJECTS"><rect class="cls-2" width="200" height="350"/><rect class="cls-3" y="124.7" width="200" height="73.44"/><rect class="cls-4" y="97.69" width="200" height="46.12"/><rect class="cls-5" width="200" height="107.33"/><path class="cls-6" d="M199.65,274.43A22.54,22.54,0,0,0,191.4,276a39.85,39.85,0,0,0-69.84-18.22,15,15,0,0,0-12.26-2.53,9.14,9.14,0,0,0-3.88,1.76c-5.67,4.41-7,10.57-5.3,15.67a40,40,0,0,0-53.65,20,39.71,39.71,0,0,0-23.55-10.18c.08-7.62-6.44-14.68-16.16-13.6a10.38,10.38,0,0,0-4.63,1.69A18.78,18.78,0,0,0,0,272.33V350H200V274.44Zm-87,7.6a.52.52,0,0,1-.1-.11h.1Z"/><path class="cls-7" d="M93.85,186s-8.91,5.32-20.55,25.37c-10.41,17.92-7.11,41.55-7.11,41.55H76.51s7.71-26,25.77-35.35l2.22-19.39Z"/><path class="cls-8" d="M95.33,222.3l.31-.27,7.58-20.7-.29-5L93.85,186S87.71,189.63,79,202.34C84.65,213.52,94,221.23,95.33,222.3Z"/><path class="cls-7" d="M106.15,186s8.91,5.32,20.55,25.37c10.41,17.92,7.11,41.55,7.11,41.55H123.49s-7.71-26-25.77-35.35L95.5,198.14Z"/><path class="cls-8" d="M104.67,222.3l-.31-.27-7.58-20.7.29-5L106.15,186s6.14,3.67,14.88,16.38C115.35,213.52,106,221.23,104.67,222.3Z"/><path class="cls-9" d="M104,222.43c23.22-67.54-4.25-101.09-4.25-101.09S72.28,154.89,95.5,222.43Z"/><path class="cls-10" d="M99.75,191.28A23.77,23.77,0,0,0,88.15,194a177.65,177.65,0,0,0,7.35,28.48H104A177.85,177.85,0,0,0,111.34,194,23.16,23.16,0,0,0,99.75,191.28Z"/><path class="cls-9" d="M109.57,142.68c.11.37.21.75.31,1.13C109.78,143.43,109.68,143.05,109.57,142.68Z"/><path class="cls-9" d="M108.79,140.05c.11.35.21.69.32,1C109,140.74,108.9,140.4,108.79,140.05Z"/><path class="cls-9" d="M109.19,141.37l.3,1Z"/><path class="cls-9" d="M108.34,138.67c-.26-.78-.53-1.53-.79-2.25h0C107.81,137.14,108.08,137.89,108.34,138.67Z"/><path class="cls-9" d="M109.93,144a15.14,15.14,0,0,0-20.36,0,98.5,98.5,0,0,0-2.46,12.5,33.07,33.07,0,0,1,12.64-2.08,33.63,33.63,0,0,1,12.63,2.06A99.84,99.84,0,0,0,109.93,144Z"/><path class="cls-9" d="M90.49,140.76c.05-.16.1-.32.14-.47C90.59,140.44,90.54,140.6,90.49,140.76Z"/><path class="cls-9" d="M90,142.54l.06-.22Z"/><path class="cls-9" d="M108.34,138.68l.39,1.18Z"/><path class="cls-9" d="M91.17,138.62h0v0Z"/><path class="cls-10" d="M89.56,144a15.13,15.13,0,0,1,20.37,0c-4-15.1-10.18-22.64-10.18-22.64S93.58,128.88,89.56,144Z"/><path class="cls-10" d="M112.17,155l.06.38Z"/><path class="cls-10" d="M111.82,152.77a.77.77,0,0,0,0-.15h0A.77.77,0,0,1,111.82,152.77Z"/><path class="cls-10" d="M87.42,154.36c0-.29.08-.56.13-.84C87.5,153.8,87.46,154.07,87.42,154.36Z"/><path class="cls-10" d="M112.37,156.45a33.4,33.4,0,0,0-12.62-2.06,33,33,0,0,0-12.63,2.08,116,116,0,0,0-.88,18.84c2.41-1.16,6.66-2.48,13.51-2.48s11,1.3,13.5,2.45A115.72,115.72,0,0,0,112.37,156.45Z"/><path class="cls-10" d="M87.92,151.35h0c0,.17,0,.34-.08.51Z"/><path class="cls-11" d="M99.75,121.34S72.28,154.89,95.5,222.43h1l3.29-22.7s-11.59-34.88,0-78.39Z"/><path class="cls-8" d="M99.74,199.73s-4.24,3.77-4.24,22.7,4.24,30.45,4.24,30.45h0S104,241.36,104,222.43s-4.25-22.7-4.25-22.7Z"/><ellipse class="cls-12" cx="100" cy="56.68" rx="35.12" ry="34.55"/><path class="cls-13" d="M95.26,25.12h10a3.54,3.54,0,0,0,3.2-2,35.94,35.94,0,0,0-8.42-1c-19.4,0-35.12,15.47-35.12,34.56S80.6,91.23,100,91.23a35.42,35.42,0,0,0,8.42-1,3.55,3.55,0,0,0-3.2-2H96.75a3.51,3.51,0,1,1,0-7h20.49a3.51,3.51,0,1,0,0-7h-22a3.51,3.51,0,1,1,0-7h6.53a3.51,3.51,0,1,0,0-7H86.38a3.51,3.51,0,1,1,0-7h29.46a3.51,3.51,0,1,0,0-7H95.26a3.51,3.51,0,1,1,0-7h16.37a3.51,3.51,0,1,0,0-7H95.26a3.51,3.51,0,1,1,0-7Z"/><path class="cls-14" d="M84.13,56.68a34.65,34.65,0,0,1,25.5-33.23A35.55,35.55,0,0,0,100,22.12c-19.4,0-35.12,15.47-35.12,34.56S80.6,91.23,100,91.23a35.55,35.55,0,0,0,9.63-1.33A34.64,34.64,0,0,1,84.13,56.68Z"/><path class="cls-6" d="M193.24,226.93c-9.72-1.09-16.24,6-16.16,13.59-9.06.74-22.09,7-23.55,22.22a40,40,0,0,0-53.65-20c1.72-5.11.37-11.26-5.3-15.67a9.28,9.28,0,0,0-3.88-1.77,15,15,0,0,0-12.26,2.54A39.85,39.85,0,0,0,8.6,246a22.34,22.34,0,0,0-8.25-1.57l-.35,0V350H200V230.34a17.75,17.75,0,0,0-2.13-1.72A10.15,10.15,0,0,0,193.24,226.93ZM87.31,252.08V252h.1Z"/><path class="cls-15" d="M170.14,105.19h-.06a3.25,3.25,0,0,1-3.27-3.23,2.19,2.19,0,0,0-2.1-2.19,2.16,2.16,0,0,0-2.27,2.14v0a3.25,3.25,0,0,1-3.27,3.23h0a2.17,2.17,0,0,0-2.19,2.14h0a2.17,2.17,0,0,0,2.19,2.15h0a3.24,3.24,0,0,1,3.27,3.22h0a2.2,2.2,0,0,0,2.11,2.2,2.17,2.17,0,0,0,2.26-2.15v0a3.24,3.24,0,0,1,3.27-3.22h.06a2.17,2.17,0,0,0,2.18-2.15h0A2.16,2.16,0,0,0,170.14,105.19Z"/><path class="cls-15" d="M48.48,23.46h0a2.09,2.09,0,0,1-2.1-2.07A1.4,1.4,0,0,0,45,20a1.39,1.39,0,0,0-1.45,1.38v0a2.09,2.09,0,0,1-2.1,2.07h0A1.39,1.39,0,0,0,40,24.83h0a1.39,1.39,0,0,0,1.4,1.38h0a2.09,2.09,0,0,1,2.1,2.07h0a1.4,1.4,0,0,0,1.35,1.41,1.39,1.39,0,0,0,1.45-1.38v0a2.09,2.09,0,0,1,2.1-2.07h0a1.39,1.39,0,0,0,1.4-1.38h0A1.39,1.39,0,0,0,48.48,23.46Z"/><path class="cls-15" d="M37.82,141.83h0a3.25,3.25,0,0,1-3.28-3.22,2.2,2.2,0,0,0-2.1-2.2,2.17,2.17,0,0,0-2.26,2.15v.05a3.25,3.25,0,0,1-3.28,3.22H26.8A2.17,2.17,0,0,0,24.62,144h0a2.17,2.17,0,0,0,2.18,2.15h.05a3.25,3.25,0,0,1,3.28,3.22h0a2.21,2.21,0,0,0,2.1,2.2,2.17,2.17,0,0,0,2.26-2.15v-.05a3.25,3.25,0,0,1,3.28-3.22h0A2.16,2.16,0,0,0,40,144h0A2.16,2.16,0,0,0,37.82,141.83Z"/><path class="cls-15" d="M154.75,196h-.05a3.25,3.25,0,0,1-3.28-3.22,2.18,2.18,0,0,0-4.36-.05v.05a3.25,3.25,0,0,1-3.28,3.22h-.05a2.17,2.17,0,0,0-2.18,2.15h0a2.17,2.17,0,0,0,2.18,2.15h.05a3.25,3.25,0,0,1,3.28,3.22h0a2.21,2.21,0,0,0,2.1,2.2,2.17,2.17,0,0,0,2.26-2.15v-.05a3.25,3.25,0,0,1,3.28-3.22h.05a2.16,2.16,0,0,0,2.18-2.15h0A2.16,2.16,0,0,0,154.75,196Z"/></g></g></g></svg>