<svg xmlns="http://www.w3.org/2000/svg" viewBox="0 0 200 350"><defs><style>.cls-1{fill:#8ac5ff;}.cls-2{fill:#f2f2f2;opacity:0.5;}.cls-3{fill:#5cb5f8;}.cls-4{fill:#2ea6f1;}.cls-5{fill:#0096ea;}.cls-6{fill:#9b9b9b;}.cls-7{fill:#4d4d4d;}.cls-8{fill:#fff;}.cls-9{fill:#b3b3b3;}</style></defs><g id="Layer_2" data-name="Layer 2"><g id="OBJECTS"><rect class="cls-1" width="200" height="350"/><path class="cls-2" d="M199.65,274.43A22.54,22.54,0,0,0,191.4,276a39.85,39.85,0,0,0-69.84-18.22,15,15,0,0,0-12.26-2.53,9.14,9.14,0,0,0-3.88,1.76c-5.67,4.41-7,10.57-5.3,15.67a40,40,0,0,0-53.65,20,39.71,39.71,0,0,0-23.55-10.18c.08-7.62-6.44-14.68-16.16-13.6a10.38,10.38,0,0,0-4.63,1.69A19.94,19.94,0,0,0,0,272.33V350H200V274.44Zm-87,7.6a.52.52,0,0,1-.1-.11h.1Z"/><path class="cls-2" d="M193.24,226.93c-9.72-1.09-16.24,6-16.16,13.59-9.06.74-22.09,7-23.55,22.22a40,40,0,0,0-53.65-20c1.72-5.1.37-11.26-5.3-15.67a9.28,9.28,0,0,0-3.88-1.77,15,15,0,0,0-12.26,2.54A39.85,39.85,0,0,0,8.6,246a22.34,22.34,0,0,0-8.25-1.57l-.35,0V350H200V230.34a17.75,17.75,0,0,0-2.13-1.72A10.15,10.15,0,0,0,193.24,226.93ZM87.31,252.08V252h.1Z"/><rect class="cls-3" y="126.02" width="200" height="73.44"/><rect class="cls-4" y="99" width="200" height="46.12"/><rect class="cls-5" width="200" height="107.33"/><polygon class="cls-6" points="87.96 162.72 94.22 177.79 121.7 110.27 87.96 162.72"/><polygon class="cls-7" points="95.4 164.88 94.22 177.79 110.96 148.62 95.4 164.88"/><polygon class="cls-8" points="95.4 164.88 128.31 177.79 121.7 110.27 95.4 164.88"/><polygon class="cls-8" points="87.96 162.72 62.91 162.08 121.7 110.27 87.96 162.72"/><polygon class="cls-9" points="164.51 300.35 174.71 302.48 151.91 277.91 164.51 300.35"/><polygon class="cls-7" points="166.78 298.13 174.71 302.48 170.49 292.12 166.78 298.13"/><polygon class="cls-8" points="166.78 298.13 178.07 288.97 151.91 277.91 166.78 298.13"/><polygon class="cls-8" points="164.51 300.35 159.29 309.15 151.91 277.91 164.51 300.35"/><polygon class="cls-9" points="36.29 244.65 31.17 253.42 61.52 239.83 36.29 244.65"/><polygon class="cls-7" points="37.72 247.42 31.17 253.42 42.33 252.67 37.72 247.42"/><polygon class="cls-8" points="37.72 247.42 43.03 260.63 61.52 239.83 37.72 247.42"/><polygon class="cls-8" points="36.29 244.65 29.49 237.17 61.52 239.83 36.29 244.65"/><path class="cls-2" d="M23,125.78h0a10.71,10.71,0,0,1,20.8-3.12,7.86,7.86,0,0,1,4.44-1.37,7.63,7.63,0,1,1,0,15.25H23a5.38,5.38,0,1,1,0-10.76Z"/><path class="cls-2" d="M150.74,148.38h0a10.71,10.71,0,0,1,20.8-3.12,7.83,7.83,0,0,1,4.43-1.38,7.63,7.63,0,1,1,0,15.25H150.74a5.38,5.38,0,1,1,0-10.75Z"/><path class="cls-2" d="M81.81,48.58h0a17.12,17.12,0,0,1,33.27-5,12.27,12.27,0,1,1,7.09,22.19H81.81a8.61,8.61,0,1,1,0-17.21Z"/></g></g></svg>