<svg xmlns="http://www.w3.org/2000/svg" viewBox="0 0 527.45 108.11"><defs><style>.cls-1{fill:#fff;}</style></defs><g id="Layer_2" data-name="Layer 2"><g id="Layer_1-2" data-name="Layer 1"><path class="cls-1" d="M0,53.56H22.7v6.95H0v45.25H29.36V67.17H61.59V46.89H29.36V36.08h51.3V8.31H0ZM22.7,67.17V99.09h-16V67.17ZM74,15V29.41H22.7V46.89h-16V15ZM29.36,60.51V53.56H54.93v6.95Z"/><path class="cls-1" d="M174.71,39.76A32.33,32.33,0,0,0,147.45,8.34l-.17,0H93.38V53.56h52.74V29.41H114.71V46.89H100V15h46.64a25.64,25.64,0,0,1,21.37,24.84,25.56,25.56,0,0,1-21.37,25.24H93.38v40.71h28V78.34l19.69,27.42H176.7L149.34,71.33A32.25,32.25,0,0,0,174.71,39.76ZM144.49,99.09,124.83,71.71h16.3l21.75,27.38Zm-5-63V46.89H121.38V36.08ZM114.71,71.71V99.09H100V71.71Z"/><path class="cls-1" d="M226.76,77.93,214.52,99.09H198.39L231,15h17.5l18.61,45.54H253L240.72,28.68,223.56,67.17H277L253,8.31H226.42l-37.77,97.45h29.72l12.27-21.21,18.41-.22L262,105.76h28.57l-8.31-28.49Zm39,21.16-9-14.85L277.27,84l4.41,15.09Zm-25.48-53,5.58,14.46h-12Z"/><path class="cls-1" d="M422.94,99.09H409.25V1.16l-43.33,61.2L327,0V99.09H309.84V9.42h-6.67v96.34h30.5V61.08l31.9,47,37-48.09v45.74h27V9.42h-6.66ZM333.67,23.28l31.9,51.12,37-52.28v27L365.92,96.74,333.67,49.2Z"/><path class="cls-1" d="M527.45,36.08V8.31H444.22V53.56h22.7V65.05h-22.7v40.71h83.23V77.3H473.58V71.71h34.2V46.89h-34.2V36.08Zm-53.87,29V53.56h27.53V65.05ZM520.78,84V99.09H450.89V71.71h16V84Zm0-69V29.41H466.92V46.89h-16V15Z"/></g></g></svg>